<?xml version="1.0" encoding="UTF-8"?>
<svg id="Capa_1" data-name="Capa 1" xmlns="http://www.w3.org/2000/svg" viewBox="0 0 64 64">
  <defs>
    <style>
      .cls-1 {
        fill: #0a0438;
      }
    </style>
  </defs>
  <path class="cls-1" d="M55.11,51.78c0,1.49-1.25,2.59-2.34,3.02-1.44.56-2.75.22-4.02-.72-1.27,1.01-2.8,1.25-4.21.6s-2.34-2.07-2.26-3.74l.02-7.8c-.07-1.47-1.93-.08-3.43-.96-1.02-.6-.67-1.75-.4-2.59l.97-3.05c-1.8.34-3.27.06-4.36-1.2-.95-1.1-1.2-2.66-.54-4.14l4.29-9.58c1.91-4.26,6.12-3.65,10.2-3.66,3.68,0,7.84-.44,9.6,3.41l4.29,9.38c.94,2.05.53,4.47-1.61,5.53-.89.44-2.17.37-3.22.31l1.07,3.22c.24.72.43,1.86-.4,2.31-1.03.55-2.21.37-3.6.24l-.05,9.41ZM50.09,40.67v10.45c.02.62.83,1.13,1.31,1.04.53-.1.96-.63.96-1.23v-10.32c-.02-.64.44-1.04,1.05-1.04l2.63-.02-4.08-13.86c-.25-.84.15-1.56.83-1.83.55-.21,1.44-.14,1.74.5l4.03,8.81c.29.64,1,.86,1.5.5.53-.39.54-.93.26-1.57l-4.12-9.16c-.54-1.21-1.65-2.07-3.02-2.07h-8.79c-1.11-.01-2.41.72-2.87,1.75l-4.47,10.06c-.15.34.42,1.11.76,1.19.3.07,1-.22,1.15-.56l3.84-8.6c.32-.72.87-1.07,1.67-.96.52.07,1.36.71,1.14,1.46l-4.12,14.31,2.5.03c.59,0,1.05.39,1.06,1.05l.03,4.53-.04,5.77c0,.57.48,1.17.94,1.26.39.08,1.35-.37,1.35-.82l.03-10.55c0-.59.84-1.26,1.34-1.25s1.39.49,1.39,1.11Z"/>
  <path class="cls-1" d="M20.31,51.42c0,1.94-1.67,3.34-3.29,3.54-1.24.15-2.29-.25-3.29-.79-.76.45-1.64.84-2.68.83-1.87-.03-3.74-1.41-3.75-3.47l-.08-15.9c-1.71,1.18-3.25,1.38-4.88.58-1.21-.6-2.36-2.3-1.96-3.95l2.29-9.47c.63-2.61,2.83-4.69,5.61-4.73l8.9-.13c2.02-.03,4.03.3,5.61,1.52,1.43,1.1,1.95,2.73,2.37,4.39l2.01,8.07c.31,1.23.05,2.32-.71,3.34-1.26,1.69-4.16,2.01-6.09.25l-.07,15.92ZM15.18,46.97l.07,4c.01.6.49,1.17.96,1.24.36.05,1.2-.39,1.2-.89l.02-26.4c0-.81.78-1.34,1.35-1.35.53,0,1.33.35,1.48.98l2.05,8.44c.15.63.79,1.02,1.26.9.66-.17.94-.74.77-1.44l-2.01-8.23c-.46-1.9-1.56-3.36-3.7-3.35l-9.83.03c-1.98,0-3.17,1.47-3.58,3.2l-1.96,8.38c-.13.55.33,1.24.8,1.41s1.13-.29,1.27-.88l1.92-8.35c.19-.8.92-1.14,1.61-1.07s1.17.66,1.17,1.52v25.79c0,.76.56,1.28,1.17,1.33.43.03,1.15-.48,1.15-1.04v-13.87c.01-.62.76-1.12,1.22-1.21.43-.09,1.51.26,1.51.76l.09,10.13Z"/>
  <path class="cls-1" d="M32.24,53.92c0,.9-1.01,1.07-1.42,1.05s-1.38-.34-1.38-.92V6.4c0-.85.99-1.19,1.55-1.11.64.09,1.27.63,1.27,1.51v47.11Z"/>
  <path class="cls-1" d="M19.79,11.26c0,3.32-2.7,6.02-6.03,6.02s-6.03-2.69-6.03-6.02,2.7-6.02,6.03-6.02,6.03,2.69,6.03,6.02ZM16.58,9.9c-.76-1.34-2.11-2.04-3.64-1.62-1.28.35-2.34,1.57-2.34,3s1.04,2.66,2.34,2.99c1.52.39,2.85-.28,3.64-1.61.54-.91.53-1.84,0-2.76Z"/>
  <path class="cls-1" d="M54.81,11.28c0,3.31-2.69,6-6.01,6s-6.01-2.69-6.01-6,2.69-6,6.01-6,6.01,2.69,6.01,6ZM51.95,11.27c0-1.73-1.4-3.13-3.14-3.13s-3.14,1.4-3.14,3.13,1.4,3.13,3.14,3.13,3.14-1.4,3.14-3.13Z"/>
</svg>