<?xml version="1.0" encoding="UTF-8"?>
<svg id="Capa_1" data-name="Capa 1" xmlns="http://www.w3.org/2000/svg" viewBox="0 0 64 64">
  <defs>
    <style>
      .cls-1 {
        fill: #0a0438;
      }
    </style>
  </defs>
  <path class="cls-1" d="M38.1,63.34c-1.94.29-4.01.19-6,.19l-14.58.06-3.05-.21c-5.16-.88-9.79-5.32-10.06-10.92-.42-8.41-.24-16.75-.06-25.14.05-2.27,2.51-4.49,4.57-4.49h34.55c3.25,0,5.03,3.25,4.81,6.32,2.7-.15,4.99.33,7.11,1.84,3.5,2.49,5.13,6.72,4.19,11.09-.79,3.66-3.96,7.21-8.02,7.94l-3.28.37c.25,6.17-3.81,12-10.18,12.95ZM36.51,59.88c4.37-.01,7.5-3.88,8.05-7.99v-23.76c0-.43-.6-1.65-1.12-1.65H9.49c-.89,0-1.61.85-1.61,1.72l.09,23.01c.02,4.63,3.29,7.92,7.76,8.73l20.78-.06ZM48.28,46.56c4.18.49,7.36-2.25,7.85-6.14.54-4.33-3.39-8.3-7.86-7.55v13.69Z"/>
  <path class="cls-1" d="M16.02,16.59c-1.18.27-1.92-.69-2.02-1.45-.29-2.24,2.25-2.06,2.25-3.46,0-1.88-3.13-2.7-2.77-6.38.16-1.67,1.24-3.27,2.85-4.29.91-.58,2.18-.6,2.73.27.64,1.01.43,2.21-.79,2.79-.51.24-1.08.99-1.11,1.47-.15,2.06,3.51,2.6,2.53,7.2-.33,1.54-1.72,3.39-3.66,3.84Z"/>
  <path class="cls-1" d="M36.21,16.22c-1.1.61-2.25.52-2.86-.57-1.07-1.94,1.65-2.59,2.08-3.8s-2.59-2.85-2.75-5.65c-.14-2.45,1.61-4.81,3.85-5.54,1.04-.34,1.89.42,2.05,1.23.43,2.15-2.04,2.17-2.26,3.71s2.58,1.94,2.68,5.68c.06,2.15-.82,3.86-2.8,4.95Z"/>
  <path class="cls-1" d="M29.38,11.97c-.04,1.95-1.11,3.09-2.54,4.12-.94.67-2.23.83-2.88-.17s-.46-2.27.76-2.83c.46-.21,1.09-.97,1.14-1.44.16-1.58-3.27-2.87-2.71-6.58.23-1.55,1.3-3.08,2.82-4.06.91-.58,2.17-.59,2.74.28,1.42,2.18-1.76,2.83-1.98,4.34-.24,1.63,2.76,1.86,2.66,6.34Z"/>
</svg>