<?xml version="1.0" encoding="UTF-8"?>
<svg id="Capa_1" data-name="Capa 1" xmlns="http://www.w3.org/2000/svg" viewBox="0 0 64 64">
  <defs>
    <style>
      .cls-1 {
        fill: #0a0438;
      }
    </style>
  </defs>
  <path class="cls-1" d="M42.15,63.56l-34.9-.03c-2.35,0-3.72-2.55-3.71-4.58l.04-46.05c0-2.87,2.82-5.32,5.6-5.32h31.18c2.64,0,5.4,2.3,5.4,5.12l.02,47.2c0,1.63-2.03,3.65-3.63,3.65ZM15.06,60.31c2.76.05,5.34.14,8.01-.18V10.93s-13.92,0-13.92,0c-1.31,0-2.2,1.22-2.23,2.49v45.5c0,.71.65,1.26,1.24,1.27l6.89.12ZM42.41,59.61V12.93c-.18-.93-.99-2-2-1.99h-14.14s.01,48.9.01,48.9c0,.61,1.42.71,1.69.36h7.58c1.99.28,5.83.32,6.86-.59Z"/>
  <path class="cls-1" d="M33.07,3.8l-16.53.04c-.95,0-1.52-.9-1.57-1.54-.07-.91.42-1.86,1.53-1.86l16.8.03c.58,0,1.2,1.12,1.24,1.62.05.54-.65,1.71-1.48,1.71Z"/>
  <path class="cls-1" d="M58.76,33.16l-7.57-.05c-.25,0-.79-.28-.91-.49-.15-.25-.07-.99.11-1.23l3.73-5.08c.2-.27.8-.66,1.11-.69s.84.38,1.06.68l4.17,5.71c0,.7-1.02,1.16-1.7,1.16Z"/>
  <path class="cls-1" d="M56.22,44.63c-.26.35-1.23.88-1.46.59l-4.06-5.32c-.39-.51-.87-1.81,0-2.19l8.57-.05c.41,0,1.14.84,1.18,1.25l-4.24,5.72Z"/>
</svg>