<?xml version="1.0" encoding="UTF-8"?>
<svg id="Capa_1" data-name="Capa 1" xmlns="http://www.w3.org/2000/svg" viewBox="0 0 64 64">
  <defs>
    <style>
      .cls-1 {
        fill: #0a0438;
      }
    </style>
  </defs>
  <path class="cls-1" d="M63.5,32c0,17.36-14.1,31.43-31.5,31.43S.5,49.36.5,32,14.6.57,32,.57s31.5,14.07,31.5,31.43ZM59.92,32.01c0-15.39-12.5-27.86-27.92-27.86S4.08,16.62,4.08,32.01s12.5,27.86,27.92,27.86,27.92-12.47,27.92-27.86Z"/>
  <path class="cls-1" d="M56.9,32.01c0,13.72-11.14,24.84-24.89,24.84S7.12,45.72,7.12,32.01,18.26,7.17,32.01,7.17s24.89,11.12,24.89,24.84ZM53.35,32.01c0-11.76-9.55-21.29-21.33-21.29s-21.33,9.53-21.33,21.29,9.55,21.29,21.33,21.29,21.33-9.53,21.33-21.29Z"/>
  <path class="cls-1" d="M23.33,45.99c-1.49.56-3.04.03-3.87-.87s-1.63-2.3-1.13-3.69l4.84-13.52c1.12-3.13,3.99-4.56,6.87-5.63l10.4-3.87c1.51-.56,3.1-.37,4.21.75,1.03,1.04,1.44,2.61.92,4.09l-4.25,12.07c-1.05,3-3.13,5.06-6.08,6.18l-11.91,4.48ZM21.94,42.77l12.64-4.76c1.6-.91,2.82-2.17,3.42-3.9l4.39-12.56-11.87,4.3c-2.16.78-3.76,2.14-4.52,4.39l-.91,2.7-1.63,4.61c-.59,1.67-1.31,3.07-1.52,5.21Z"/>
  <ellipse class="cls-1" cx="32.04" cy="32.1" rx="3.13" ry="3.12"/>
</svg>