<?xml version="1.0" encoding="UTF-8"?>
<svg id="Capa_1" data-name="Capa 1" xmlns="http://www.w3.org/2000/svg" viewBox="0 0 64 64">
  <defs>
    <style>
      .cls-1 {
        fill: #0a0438;
      }
    </style>
  </defs>
  <path class="cls-1" d="M.33,51.25c.3-2.37,1.6-3.37,3.31-4.42l26.4-16.18.06-5.51c.02-1.46,1.17-1.87,2.34-1.92,3.2-.13,5.52-2.82,5.85-5.69.36-3.13-1.58-6.19-4.83-6.94-.76-.18-2.35-.16-3.08,0-3.16.68-4.77,3.54-4.88,6.49-.05,1.23-1.2,1.6-2.15,1.43-1.06-.19-1.49-1.16-1.41-2.3.37-5.04,4.22-8.92,9.09-9.37,5.04-.47,9.54,2.89,10.76,7.9s-2.27,10.89-7.99,11.93l.02,3.91,6.62,4.04,20.79,12.79c2.01,1.23,2.83,3.48,2.36,5.71-.35,1.64-2.14,4.12-4.53,4.12l-54.18-.03c-3.13,0-4.87-3.41-4.54-5.94ZM56.32,53.63l1.89-.17c.76-.07,1.55-.42,1.79-1.06.25-.68-.01-1.56-.73-2l-27.28-16.72-18.19,11.13-9.02,5.55c-.66.54-1.12,1.32-.89,1.95.17.48.93,1.31,1.65,1.31h50.78Z"/>
</svg>