<?xml version="1.0" encoding="UTF-8"?>
<svg id="Capa_1" data-name="Capa 1" xmlns="http://www.w3.org/2000/svg" viewBox="0 0 64 64">
  <defs>
    <style>
      .cls-1 {
        fill: #0a0438;
      }
    </style>
  </defs>
  <path class="cls-1" d="M36.75,44.94l-.02,14.94,20.86-.03c1.6,0,2.49-1.89,2.4-3.15l-.32-4.61-.56-7.38-.54-6.87-.29-4.57-.43-5.48-.55-8.23c-.1-1.44-1.2-2.42-2.6-2.41l-4.27.03v3.2c-.01.91-.49,1.62-1.38,1.98-.62.25-2.03-.38-2.07-1.22l-.19-3.99-12.36.04-.09,4.02c-.01.59-1.14,1.27-1.69,1.25s-1.68-.75-1.7-1.31l-.13-3.98h-4.74c-.62.01-1.79.98-1.86,1.59l-.87,12.43c-.11.96-.82,1.69-1.61,1.8s-2-.65-1.96-1.56l.54-11.43c.12-2.71,1.63-5.82,4.69-6.22l5.85-.13.21-5.12c.8-3.97,3.66-6.91,7.56-7.67,5.49-1.08,10.67,2.24,11.63,7.83l.2,4.91,6.22.2c3.14.53,4.08,3.75,4.26,6.49l.2,2.98.34,4.54.57,7.66,1.49,20.09c.64,3.6-1.11,6.62-4.73,7.77l-52.8-.02c-1.57,0-3.38-2.06-3.4-3.53l-.16-14.96c-1.24-.72-2.06-1.76-2.08-3.16l-.04-4.51c.17-2.52,2.32-4.17,4.84-3.65l.66-.09c.6-.08-1.56-4.06,2.42-6.9,2.5-1.78,6.2-1.09,8.22,1.21l3.15,3.57c1.71-2.49,3.46-4.62,6.27-5.49.7-.22,2.01-.15,2.82-.12,1.81.08,3.12,1.41,3.85,2.52,1.13,1.71,1.01,3.38.33,5.19l2.5.07c2.15.06,3.51,1.95,3.49,3.91l-.04,4.04c.04,1.47-.68,2.66-2.1,3.52ZM46.81,13.67c.45-4.29-.43-7.87-4.39-9.13-2.14-.68-4.37-.14-5.98,1.39-2.04,1.94-2.38,5.02-1.93,7.74h12.3ZM16.96,33.42c-.99-2.05-3.3-4.36-5.06-4.6-1.46-.19-2.74.75-2.89,2.12-.12,1.13.97,2.53,2.27,2.52l5.68-.04ZM22.17,33.41h5.74c1.53,0,2.39-1.55,2.14-2.77-.27-1.31-1.43-2.09-2.97-1.77-1.01.21-2.33.93-2.94,1.79l-1.96,2.76ZM14.26,41.96l-.05-5.33-9.5-.03c-.34,0-1.01.34-1.18.54l.08,4.81h10.65ZM21.76,36.61h-4.28s0,23.48,0,23.48h4.28s0-23.48,0-23.48ZM35.7,37.27c0-.29-.83-.67-1.14-.67l-9.55.04-.05,5.29,10.66.02.07-4.68ZM14.26,45.15H5.87s0,14.95,0,14.95h8.39s0-14.95,0-14.95ZM33.31,45.15h-8.33s0,14.95,0,14.95h8.33s0-14.95,0-14.95Z"/>
</svg>